<mxfile modified="2021-09-01T06:25:47.944Z" host="app.diagrams.net" agent="5.0 (Windows)" etag="HjE8QbrRJUxvV2eFN4Nu" version="15.0.4" type="github">
  <diagram id="47XATLoYFlsOKpK6gv93" name="Page-2">
    <mxGraphModel dx="782" dy="404" grid="1" gridSize="10" guides="1" tooltips="1" connect="1" arrows="1" fold="1" page="1" pageScale="1" pageWidth="850" pageHeight="1100" math="0" shadow="0">
      <root>
        <mxCell id="uhbnFg7hDyjY5Le1RUd9-0" />
        <mxCell id="uhbnFg7hDyjY5Le1RUd9-1" parent="uhbnFg7hDyjY5Le1RUd9-0" />
        <mxCell id="Nr1ED60fA35teynGBs-T-0" value="" style="shape=image;html=1;verticalAlign=top;verticalLabelPosition=bottom;imageAspect=0;aspect=fixed;image=https://cdn4.iconfinder.com/data/icons/logos-brands-5/24/jenkins-128.png" vertex="1" parent="uhbnFg7hDyjY5Le1RUd9-1">
          <mxGeometry x="160" y="210" width="98" height="98" as="geometry" />
        </mxCell>
        <mxCell id="Nr1ED60fA35teynGBs-T-1" value="" style="points=[[0,0,0],[0.25,0,0],[0.5,0,0],[0.75,0,0],[1,0,0],[0,1,0],[0.25,1,0],[0.5,1,0],[0.75,1,0],[1,1,0],[0,0.25,0],[0,0.5,0],[0,0.75,0],[1,0.25,0],[1,0.5,0],[1,0.75,0]];outlineConnect=0;gradientDirection=north;dashed=0;verticalLabelPosition=bottom;verticalAlign=top;align=center;html=1;fontSize=12;fontStyle=0;aspect=fixed;shape=mxgraph.aws4.resourceIcon;resIcon=mxgraph.aws4.artifact;" vertex="1" parent="uhbnFg7hDyjY5Le1RUd9-1">
          <mxGeometry x="440" y="220" width="78" height="78" as="geometry" />
        </mxCell>
        <mxCell id="Nr1ED60fA35teynGBs-T-3" value="" style="shape=image;html=1;verticalAlign=top;verticalLabelPosition=bottom;imageAspect=0;aspect=fixed;image=https://cdn4.iconfinder.com/data/icons/socialcones/508/Github-128.png" vertex="1" parent="uhbnFg7hDyjY5Le1RUd9-1">
          <mxGeometry x="330" y="30" width="100" height="100" as="geometry" />
        </mxCell>
        <mxCell id="Nr1ED60fA35teynGBs-T-5" value="" style="shape=flexArrow;endArrow=classic;startArrow=classic;html=1;" edge="1" parent="uhbnFg7hDyjY5Le1RUd9-1" source="Nr1ED60fA35teynGBs-T-0" target="Nr1ED60fA35teynGBs-T-3">
          <mxGeometry width="100" height="100" relative="1" as="geometry">
            <mxPoint x="250" y="220" as="sourcePoint" />
            <mxPoint x="350" y="120" as="targetPoint" />
          </mxGeometry>
        </mxCell>
        <mxCell id="Nr1ED60fA35teynGBs-T-8" value="" style="shape=flexArrow;endArrow=classic;html=1;exitX=1;exitY=0.5;exitDx=0;exitDy=0;entryX=0;entryY=0.5;entryDx=0;entryDy=0;entryPerimeter=0;" edge="1" parent="uhbnFg7hDyjY5Le1RUd9-1" source="Nr1ED60fA35teynGBs-T-0" target="Nr1ED60fA35teynGBs-T-1">
          <mxGeometry width="50" height="50" relative="1" as="geometry">
            <mxPoint x="370" y="230" as="sourcePoint" />
            <mxPoint x="420" y="180" as="targetPoint" />
          </mxGeometry>
        </mxCell>
        <mxCell id="Nr1ED60fA35teynGBs-T-9" value="Artifacts" style="text;html=1;strokeColor=none;fillColor=none;align=center;verticalAlign=middle;whiteSpace=wrap;rounded=0;" vertex="1" parent="uhbnFg7hDyjY5Le1RUd9-1">
          <mxGeometry x="530" y="240" width="40" height="20" as="geometry" />
        </mxCell>
      </root>
    </mxGraphModel>
  </diagram>
</mxfile>
